<svg aria-hidden="true" style="position: absolute; width: 0; height: 0; overflow: hidden;" version="1.1" xmlns="http://www.w3.org/2000/svg" xmlns:xlink="http://www.w3.org/1999/xlink">
<defs>
<symbol id="icon-message-typing" viewBox="0 0 24 24">
<path d="M18 6h-13c-1.65 0-3 1.35-3 3v7c0 1.65 1.35 3 3 3h1v3l3-3h9c1.65 0 3-1.35 3-3v-7c0-1.65-1.35-3-3-3zM19 16c0 0.542-0.458 1-1 1h-13c-0.542 0-1-0.458-1-1v-7c0-0.542 0.458-1 1-1h13c0.542 0 1 0.458 1 1v7z"></path>
<path d="M7 14.5c-1.104 0-2-0.896-2-2s0.896-2 2-2 2 0.896 2 2-0.896 2-2 2zM7 11.5c-0.552 0-1 0.448-1 1s0.448 1 1 1 1-0.448 1-1-0.448-1-1-1z"></path>
<path d="M11.5 14.5c-1.104 0-2-0.896-2-2s0.896-2 2-2 2 0.896 2 2-0.896 2-2 2zM11.5 11.5c-0.552 0-1 0.448-1 1s0.448 1 1 1 1-0.448 1-1-0.448-1-1-1z"></path>
<path d="M16 14.5c-1.104 0-2-0.896-2-2s0.896-2 2-2 2 0.896 2 2-0.896 2-2 2zM16 11.5c-0.552 0-1 0.448-1 1s0.448 1 1 1 1-0.448 1-1-0.448-1-1-1z"></path>
</symbol>
<symbol id="icon-chat" viewBox="0 0 42 32">
<path d="M35.652 14.023c-0.264-0.082-0.544 0.062-0.628 0.325-0.083 0.263 0.062 0.544 0.325 0.628 3.908 1.245 5.651 3.102 5.651 6.024 0 2.599-2.371 4.616-3.783 5.588-0.136 0.094-0.217 0.247-0.217 0.412v3.823c-0.73-0.272-2.003-0.89-3.126-2.155-0.117-0.131-0.295-0.191-0.468-0.159-0.285 0.055-0.576 0.133-0.871 0.212-0.51 0.137-1.036 0.279-1.535 0.279-2.568 0-4.366-0.552-6.204-1.903-0.224-0.164-0.535-0.115-0.699 0.107-0.164 0.223-0.116 0.535 0.106 0.699 2.027 1.49 3.996 2.097 6.797 2.097 0.631 0 1.223-0.159 1.795-0.313 0.178-0.049 0.355-0.097 0.53-0.138 1.869 1.974 3.983 2.423 4.075 2.441 0.033 0.007 0.066 0.010 0.1 0.010 0.114 0 0.227-0.039 0.316-0.113 0.117-0.095 0.184-0.237 0.184-0.387v-4.239c2.582-1.841 4-4.057 4-6.261 0-3.381-2.017-5.598-6.348-6.977zM33 13.5c0-7.696-7.018-13.5-16.323-13.5-9.352 0-16.677 5.931-16.677 13.502 0 4.539 3.211 7.791 6 9.759v6.636c0 0.17 0.086 0.327 0.228 0.42 0.083 0.053 0.177 0.080 0.272 0.080 0.069 0 0.139-0.015 0.205-0.044 0.146-0.065 3.559-1.616 6.479-4.809 1.265 0.235 2.696 0.461 3.994 0.461 9.463 0 15.822-5.026 15.822-12.505zM17.177 25.005c-1.31 0-2.799-0.251-4.083-0.496-0.173-0.031-0.351 0.028-0.468 0.159-2.050 2.312-4.459 3.781-5.626 4.414v-6.082c0-0.165-0.081-0.318-0.217-0.412-2.638-1.815-5.783-4.863-5.783-9.086 0-7.011 6.886-12.502 15.677-12.502 8.736 0 15.323 5.374 15.323 12.5 0 6.882-5.957 11.505-14.823 11.505zM16.5 11.5c-1.103 0-2 0.897-2 2s0.897 2 2 2 2-0.897 2-2-0.897-2-2-2zM16.5 14.5c-0.551 0-1-0.448-1-1s0.449-1 1-1 1 0.448 1 1-0.449 1-1 1zM23.5 11.5c-1.103 0-2 0.897-2 2s0.897 2 2 2 2-0.897 2-2-0.897-2-2-2zM23.5 14.5c-0.551 0-1-0.448-1-1s0.449-1 1-1 1 0.448 1 1-0.449 1-1 1zM9.5 11.595c-1.103 0-2 0.897-2 2s0.897 2 2 2 2-0.897 2-2-0.897-2-2-2zM9.5 14.595c-0.551 0-1-0.448-1-1s0.449-1 1-1 1 0.448 1 1-0.449 1-1 1z"></path>
</symbol>
<symbol id="icon-podcast" viewBox="0 0 32 32">
<path d="M32 16c0-8.837-7.163-16-16-16s-16 7.163-16 16c0 6.877 4.339 12.739 10.428 15.002l-0.428 0.998h12l-0.428-0.998c6.089-2.263 10.428-8.125 10.428-15.002zM15.212 19.838c-0.713-0.306-1.212-1.014-1.212-1.838 0-1.105 0.895-2 2-2s2 0.895 2 2c0 0.825-0.499 1.533-1.212 1.839l-0.788-1.839-0.788 1.838zM16.821 19.915c1.815-0.379 3.179-1.988 3.179-3.915 0-2.209-1.791-4-4-4s-4 1.791-4 4c0 1.928 1.364 3.535 3.18 3.913l-2.332 5.441c-2.851-1.223-4.848-4.056-4.848-7.355 0-4.418 3.582-8.375 8-8.375s8 3.957 8 8.375c0 3.299-1.997 6.131-4.848 7.355l-2.331-5.439zM21.514 30.866l-2.31-5.39c3.951-1.336 6.796-5.073 6.796-9.476 0-5.523-4.477-10-10-10s-10 4.477-10 10c0 4.402 2.845 8.14 6.796 9.476l-2.31 5.39c-4.987-2.14-8.481-7.095-8.481-12.866 0-7.729 6.266-14.37 13.995-14.37s13.995 6.641 13.995 14.37c0 5.771-3.494 10.726-8.481 12.866z"></path>
</symbol>
<symbol id="icon-list2" viewBox="0 0 32 32">
<path d="M12 2h20v4h-20v-4zM12 14h20v4h-20v-4zM12 26h20v4h-20v-4zM0 4c0-2.209 1.791-4 4-4s4 1.791 4 4c0 2.209-1.791 4-4 4s-4-1.791-4-4zM0 16c0-2.209 1.791-4 4-4s4 1.791 4 4c0 2.209-1.791 4-4 4s-4-1.791-4-4zM0 28c0-2.209 1.791-4 4-4s4 1.791 4 4c0 2.209-1.791 4-4 4s-4-1.791-4-4z"></path>
</symbol>
</defs>
</svg>
